<svg xmlns="http://www.w3.org/2000/svg" xmlns:xlink="http://www.w3.org/1999/xlink" width="448" zoomAndPan="magnify" viewBox="0 0 336 125.999998" height="168" preserveAspectRatio="xMidYMid meet" version="1.0"><defs><g/></defs><g fill="#e49602" fill-opacity="1"><g transform="translate(23.783528, 98.98758)"><g><path d="M 63.671875 -25.671875 C 64.265625 -27.210938 65.222656 -27.984375 66.546875 -27.984375 C 67.273438 -27.984375 67.914062 -27.722656 68.46875 -27.203125 C 69.019531 -26.691406 69.296875 -25.960938 69.296875 -25.015625 C 69.296875 -24.492188 69.1875 -23.941406 68.96875 -23.359375 C 66.03125 -15.347656 63.144531 -9.378906 60.3125 -5.453125 C 57.488281 -1.523438 53.984375 0.4375 49.796875 0.4375 C 47.960938 0.4375 45.664062 0.0703125 42.90625 -0.65625 C 40.15625 -1.394531 37.382812 -2.128906 34.59375 -2.859375 C 31.800781 -3.597656 29.34375 -3.96875 27.21875 -3.96875 C 24.9375 -3.96875 22.785156 -3.765625 20.765625 -3.359375 C 18.742188 -2.953125 16.375 -2.203125 13.65625 -1.109375 C 12.5625 -0.660156 11.71875 -0.4375 11.125 -0.4375 C 10.019531 -0.4375 9.082031 -0.800781 8.3125 -1.53125 C 7.539062 -2.269531 7.15625 -3.15625 7.15625 -4.1875 C 7.15625 -5.582031 7.742188 -6.796875 8.921875 -7.828125 C 11.492188 -10.171875 13.660156 -12.570312 15.421875 -15.03125 C 17.179688 -17.5 18.628906 -20.328125 19.765625 -23.515625 C 20.910156 -26.710938 21.867188 -30.515625 22.640625 -34.921875 C 23.410156 -39.328125 24.125 -44.617188 24.78125 -50.796875 C 24.863281 -51.085938 24.90625 -51.378906 24.90625 -51.671875 C 24.90625 -51.960938 24.941406 -52.253906 25.015625 -52.546875 C 20.828125 -54.160156 17.375 -56.617188 14.65625 -59.921875 C 11.9375 -63.234375 10.578125 -66.648438 10.578125 -70.171875 C 10.578125 -71.273438 10.90625 -72.15625 11.5625 -72.8125 C 12.226562 -73.476562 13.035156 -73.8125 13.984375 -73.8125 C 14.796875 -73.8125 15.492188 -73.59375 16.078125 -73.15625 C 16.671875 -72.71875 17.113281 -71.875 17.40625 -70.625 C 17.988281 -67.976562 19.070312 -65.695312 20.65625 -63.78125 C 22.238281 -61.875 24.09375 -60.40625 26.21875 -59.375 C 29.007812 -71.570312 34.738281 -77.671875 43.40625 -77.671875 C 46.488281 -77.671875 49.019531 -76.734375 51 -74.859375 C 52.988281 -72.984375 53.984375 -70.539062 53.984375 -67.53125 C 53.984375 -64.445312 53.101562 -61.640625 51.34375 -59.109375 C 49.582031 -56.578125 47.191406 -54.554688 44.171875 -53.046875 C 41.160156 -51.546875 37.75 -50.796875 33.9375 -50.796875 L 32.609375 -50.796875 C 32.535156 -50.640625 32.5 -50.414062 32.5 -50.125 C 31.769531 -42.925781 30.960938 -36.898438 30.078125 -32.046875 C 29.191406 -27.203125 28.066406 -23.09375 26.703125 -19.71875 C 25.347656 -16.34375 23.5 -13.222656 21.15625 -10.359375 C 22.476562 -10.722656 23.800781 -10.941406 25.125 -11.015625 C 26.445312 -11.085938 27.507812 -11.125 28.3125 -11.125 C 30.882812 -11.125 33.472656 -10.738281 36.078125 -9.96875 C 38.691406 -9.195312 41.226562 -8.425781 43.6875 -7.65625 C 46.144531 -6.882812 48.328125 -6.5 50.234375 -6.5 C 52.367188 -6.5 54.460938 -8.019531 56.515625 -11.0625 C 58.578125 -14.113281 60.960938 -18.984375 63.671875 -25.671875 Z M 42.53125 -70.625 C 38.34375 -70.625 35.367188 -66.328125 33.609375 -57.734375 L 33.828125 -57.734375 C 37.347656 -57.734375 40.316406 -58.613281 42.734375 -60.375 C 45.160156 -62.132812 46.375 -64.265625 46.375 -66.765625 C 46.375 -67.941406 46.023438 -68.878906 45.328125 -69.578125 C 44.628906 -70.273438 43.695312 -70.625 42.53125 -70.625 Z M 42.53125 -70.625 "/></g></g></g><g fill="#e49602" fill-opacity="1"><g transform="translate(83.810557, 98.98758)"><g><path d="M 73.484375 -25.671875 C 73.847656 -26.546875 74.304688 -27.1875 74.859375 -27.59375 C 75.410156 -28 75.941406 -28.203125 76.453125 -28.203125 C 77.191406 -28.203125 77.816406 -27.925781 78.328125 -27.375 C 78.847656 -26.820312 79.109375 -26.109375 79.109375 -25.234375 C 79.109375 -24.640625 78.992188 -24.015625 78.765625 -23.359375 C 75.679688 -15.421875 72.875 -9.394531 70.34375 -5.28125 C 67.8125 -1.175781 64.597656 0.875 60.703125 0.875 C 57.835938 0.875 55.375 -0.113281 53.3125 -2.09375 C 51.257812 -4.070312 49.460938 -6.53125 47.921875 -9.46875 C 46.378906 -12.40625 44.984375 -15.34375 43.734375 -18.28125 C 42.554688 -20.851562 41.363281 -23.367188 40.15625 -25.828125 C 38.945312 -28.296875 37.679688 -30.300781 36.359375 -31.84375 C 34.003906 -31.84375 31.539062 -31.953125 28.96875 -32.171875 C 28.675781 -30.109375 28.363281 -28.125 28.03125 -26.21875 C 27.707031 -24.3125 27.359375 -22.441406 26.984375 -20.609375 C 26.472656 -17.660156 26.050781 -14.863281 25.71875 -12.21875 C 25.394531 -9.582031 25.234375 -6.757812 25.234375 -3.75 C 25.234375 -2.0625 24.847656 -0.847656 24.078125 -0.109375 C 23.304688 0.617188 22.40625 0.984375 21.375 0.984375 C 20.414062 0.984375 19.53125 0.65625 18.71875 0 C 17.914062 -0.65625 17.515625 -1.535156 17.515625 -2.640625 C 17.515625 -6.023438 17.679688 -9.148438 18.015625 -12.015625 C 18.347656 -14.878906 18.660156 -17.335938 18.953125 -19.390625 C 19.316406 -21.515625 19.71875 -23.679688 20.15625 -25.890625 C 20.601562 -28.097656 20.972656 -30.445312 21.265625 -32.9375 L 21.15625 -32.9375 C 20.125 -33.082031 19.347656 -33.503906 18.828125 -34.203125 C 18.316406 -34.898438 18.0625 -35.617188 18.0625 -36.359375 C 18.0625 -37.304688 18.375 -38.148438 19 -38.890625 C 19.625 -39.628906 20.523438 -40 21.703125 -40 L 22.140625 -40 C 22.210938 -41.019531 22.265625 -42.097656 22.296875 -43.234375 C 22.335938 -44.378906 22.359375 -45.539062 22.359375 -46.71875 C 22.359375 -49.875 22.15625 -52.222656 21.75 -53.765625 C 21.351562 -55.304688 21.15625 -56.59375 21.15625 -57.625 C 21.15625 -58.789062 21.484375 -59.757812 22.140625 -60.53125 C 22.804688 -61.3125 23.613281 -61.703125 24.5625 -61.703125 C 26.476562 -61.703125 27.875 -60.488281 28.75 -58.0625 C 29.632812 -55.632812 30.078125 -51.851562 30.078125 -46.71875 C 30.078125 -44 29.96875 -41.425781 29.75 -39 C 30.625 -38.925781 31.59375 -38.867188 32.65625 -38.828125 C 33.726562 -38.796875 34.960938 -38.78125 36.359375 -38.78125 C 42.378906 -38.78125 47.023438 -40.375 50.296875 -43.5625 C 53.566406 -46.757812 55.203125 -50.820312 55.203125 -55.75 C 55.203125 -60.082031 53.640625 -63.644531 50.515625 -66.4375 C 47.390625 -69.226562 42.816406 -70.625 36.796875 -70.625 C 32.242188 -70.625 28.113281 -69.757812 24.40625 -68.03125 C 20.695312 -66.300781 17.757812 -63.984375 15.59375 -61.078125 C 13.425781 -58.179688 12.34375 -54.898438 12.34375 -51.234375 C 12.34375 -49.617188 11.972656 -48.3125 11.234375 -47.3125 C 10.503906 -46.320312 9.585938 -45.828125 8.484375 -45.828125 C 7.378906 -45.828125 6.457031 -46.320312 5.71875 -47.3125 C 4.988281 -48.3125 4.625 -49.617188 4.625 -51.234375 C 4.625 -56.078125 6.035156 -60.484375 8.859375 -64.453125 C 11.691406 -68.421875 15.550781 -71.597656 20.4375 -73.984375 C 25.320312 -76.367188 30.773438 -77.5625 36.796875 -77.5625 C 42.234375 -77.5625 46.894531 -76.585938 50.78125 -74.640625 C 54.675781 -72.691406 57.671875 -70.066406 59.765625 -66.765625 C 61.859375 -63.460938 62.90625 -59.753906 62.90625 -55.640625 C 62.90625 -52.109375 62.113281 -48.78125 60.53125 -45.65625 C 58.957031 -42.539062 56.773438 -39.878906 53.984375 -37.671875 C 51.191406 -35.472656 48 -33.859375 44.40625 -32.828125 C 45.644531 -31.285156 46.796875 -29.429688 47.859375 -27.265625 C 48.929688 -25.097656 50.054688 -22.800781 51.234375 -20.375 C 53.578125 -15.601562 55.460938 -12.023438 56.890625 -9.640625 C 58.328125 -7.253906 59.894531 -6.0625 61.59375 -6.0625 C 63.132812 -6.0625 64.910156 -7.820312 66.921875 -11.34375 C 68.941406 -14.875 71.128906 -19.648438 73.484375 -25.671875 Z M 73.484375 -25.671875 "/></g></g></g><g fill="#e49602" fill-opacity="1"><g transform="translate(153.640109, 98.98758)"><g><path d="M 92.21875 -25.671875 C 92.800781 -27.210938 93.753906 -27.984375 95.078125 -27.984375 C 95.816406 -27.984375 96.457031 -27.722656 97 -27.203125 C 97.550781 -26.691406 97.828125 -25.960938 97.828125 -25.015625 C 97.828125 -24.492188 97.71875 -23.941406 97.5 -23.359375 C 95.519531 -18.066406 93.722656 -13.640625 92.109375 -10.078125 C 90.492188 -6.515625 88.75 -3.832031 86.875 -2.03125 C 85 -0.238281 82.664062 0.65625 79.875 0.65625 C 76.789062 0.65625 74.253906 -0.535156 72.265625 -2.921875 C 70.285156 -5.304688 69.296875 -8.773438 69.296875 -13.328125 C 69.296875 -15.085938 69.382812 -17.65625 69.5625 -21.03125 C 69.75 -24.414062 69.953125 -28.128906 70.171875 -32.171875 C 70.398438 -36.210938 70.601562 -40.160156 70.78125 -44.015625 C 70.96875 -47.867188 71.0625 -51.191406 71.0625 -53.984375 C 71.0625 -60.367188 70.175781 -64.738281 68.40625 -67.09375 C 66.644531 -69.445312 64.375 -70.625 61.59375 -70.625 C 58.726562 -70.625 55.878906 -69.300781 53.046875 -66.65625 C 50.222656 -64.007812 47.613281 -60.390625 45.21875 -55.796875 C 42.832031 -51.210938 40.773438 -45.925781 39.046875 -39.9375 C 37.328125 -33.945312 36.132812 -27.613281 35.46875 -20.9375 C 35.175781 -17.550781 34.847656 -14.40625 34.484375 -11.5 C 34.117188 -8.601562 33.828125 -6.09375 33.609375 -3.96875 C 33.453125 -2.425781 32.96875 -1.285156 32.15625 -0.546875 C 31.351562 0.179688 30.476562 0.546875 29.53125 0.546875 C 28.570312 0.546875 27.722656 0.195312 26.984375 -0.5 C 26.253906 -1.195312 25.890625 -2.242188 25.890625 -3.640625 C 25.890625 -4.441406 26.015625 -5.867188 26.265625 -7.921875 C 26.523438 -9.984375 26.820312 -12.460938 27.15625 -15.359375 C 27.488281 -18.265625 27.78125 -21.332031 28.03125 -24.5625 C 28.289062 -27.800781 28.421875 -31 28.421875 -34.15625 C 28.421875 -47.007812 27.539062 -56.484375 25.78125 -62.578125 C 24.019531 -68.671875 21.082031 -71.71875 16.96875 -71.71875 C 15.570312 -71.71875 14.265625 -71.40625 13.046875 -70.78125 C 11.835938 -70.15625 10.570312 -68.78125 9.25 -66.65625 C 8.8125 -65.914062 8.28125 -65.398438 7.65625 -65.109375 C 7.03125 -64.816406 6.425781 -64.671875 5.84375 -64.671875 C 5.101562 -64.671875 4.421875 -64.925781 3.796875 -65.4375 C 3.171875 -65.957031 2.859375 -66.691406 2.859375 -67.640625 C 2.859375 -68.890625 3.375 -70.285156 4.40625 -71.828125 C 6.019531 -74.253906 7.960938 -76 10.234375 -77.0625 C 12.515625 -78.125 14.832031 -78.65625 17.1875 -78.65625 C 22.625 -78.65625 26.882812 -76.25 29.96875 -71.4375 C 33.050781 -66.632812 34.921875 -58.976562 35.578125 -48.46875 C 38.742188 -57.65625 42.507812 -64.800781 46.875 -69.90625 C 51.25 -75.007812 56.335938 -77.5625 62.140625 -77.5625 C 67.347656 -77.5625 71.421875 -75.742188 74.359375 -72.109375 C 77.296875 -68.472656 78.765625 -62.613281 78.765625 -54.53125 C 78.765625 -53.0625 78.707031 -50.835938 78.59375 -47.859375 C 78.488281 -44.890625 78.34375 -41.601562 78.15625 -38 C 77.976562 -34.40625 77.796875 -30.863281 77.609375 -27.375 C 77.429688 -23.882812 77.285156 -20.875 77.171875 -18.34375 C 77.066406 -15.8125 77.015625 -14.175781 77.015625 -13.4375 C 77.015625 -8.519531 78.222656 -6.0625 80.640625 -6.0625 C 82.335938 -6.0625 84.066406 -7.726562 85.828125 -11.0625 C 87.585938 -14.40625 89.71875 -19.273438 92.21875 -25.671875 Z M 92.21875 -25.671875 "/></g></g></g><g fill="#e49602" fill-opacity="1"><g transform="translate(242.193739, 98.98758)"><g><path d="M 73.484375 -25.671875 C 73.847656 -26.546875 74.304688 -27.1875 74.859375 -27.59375 C 75.410156 -28 75.941406 -28.203125 76.453125 -28.203125 C 77.191406 -28.203125 77.816406 -27.925781 78.328125 -27.375 C 78.847656 -26.820312 79.109375 -26.109375 79.109375 -25.234375 C 79.109375 -24.640625 78.992188 -24.015625 78.765625 -23.359375 C 75.679688 -15.421875 72.875 -9.394531 70.34375 -5.28125 C 67.8125 -1.175781 64.597656 0.875 60.703125 0.875 C 57.835938 0.875 55.375 -0.113281 53.3125 -2.09375 C 51.257812 -4.070312 49.460938 -6.53125 47.921875 -9.46875 C 46.378906 -12.40625 44.984375 -15.34375 43.734375 -18.28125 C 42.554688 -20.851562 41.363281 -23.367188 40.15625 -25.828125 C 38.945312 -28.296875 37.679688 -30.300781 36.359375 -31.84375 C 34.003906 -31.84375 31.539062 -31.953125 28.96875 -32.171875 C 28.675781 -30.109375 28.363281 -28.125 28.03125 -26.21875 C 27.707031 -24.3125 27.359375 -22.441406 26.984375 -20.609375 C 26.472656 -17.660156 26.050781 -14.863281 25.71875 -12.21875 C 25.394531 -9.582031 25.234375 -6.757812 25.234375 -3.75 C 25.234375 -2.0625 24.847656 -0.847656 24.078125 -0.109375 C 23.304688 0.617188 22.40625 0.984375 21.375 0.984375 C 20.414062 0.984375 19.53125 0.65625 18.71875 0 C 17.914062 -0.65625 17.515625 -1.535156 17.515625 -2.640625 C 17.515625 -6.023438 17.679688 -9.148438 18.015625 -12.015625 C 18.347656 -14.878906 18.660156 -17.335938 18.953125 -19.390625 C 19.316406 -21.515625 19.71875 -23.679688 20.15625 -25.890625 C 20.601562 -28.097656 20.972656 -30.445312 21.265625 -32.9375 L 21.15625 -32.9375 C 20.125 -33.082031 19.347656 -33.503906 18.828125 -34.203125 C 18.316406 -34.898438 18.0625 -35.617188 18.0625 -36.359375 C 18.0625 -37.304688 18.375 -38.148438 19 -38.890625 C 19.625 -39.628906 20.523438 -40 21.703125 -40 L 22.140625 -40 C 22.210938 -41.019531 22.265625 -42.097656 22.296875 -43.234375 C 22.335938 -44.378906 22.359375 -45.539062 22.359375 -46.71875 C 22.359375 -49.875 22.15625 -52.222656 21.75 -53.765625 C 21.351562 -55.304688 21.15625 -56.59375 21.15625 -57.625 C 21.15625 -58.789062 21.484375 -59.757812 22.140625 -60.53125 C 22.804688 -61.3125 23.613281 -61.703125 24.5625 -61.703125 C 26.476562 -61.703125 27.875 -60.488281 28.75 -58.0625 C 29.632812 -55.632812 30.078125 -51.851562 30.078125 -46.71875 C 30.078125 -44 29.96875 -41.425781 29.75 -39 C 30.625 -38.925781 31.59375 -38.867188 32.65625 -38.828125 C 33.726562 -38.796875 34.960938 -38.78125 36.359375 -38.78125 C 42.378906 -38.78125 47.023438 -40.375 50.296875 -43.5625 C 53.566406 -46.757812 55.203125 -50.820312 55.203125 -55.75 C 55.203125 -60.082031 53.640625 -63.644531 50.515625 -66.4375 C 47.390625 -69.226562 42.816406 -70.625 36.796875 -70.625 C 32.242188 -70.625 28.113281 -69.757812 24.40625 -68.03125 C 20.695312 -66.300781 17.757812 -63.984375 15.59375 -61.078125 C 13.425781 -58.179688 12.34375 -54.898438 12.34375 -51.234375 C 12.34375 -49.617188 11.972656 -48.3125 11.234375 -47.3125 C 10.503906 -46.320312 9.585938 -45.828125 8.484375 -45.828125 C 7.378906 -45.828125 6.457031 -46.320312 5.71875 -47.3125 C 4.988281 -48.3125 4.625 -49.617188 4.625 -51.234375 C 4.625 -56.078125 6.035156 -60.484375 8.859375 -64.453125 C 11.691406 -68.421875 15.550781 -71.597656 20.4375 -73.984375 C 25.320312 -76.367188 30.773438 -77.5625 36.796875 -77.5625 C 42.234375 -77.5625 46.894531 -76.585938 50.78125 -74.640625 C 54.675781 -72.691406 57.671875 -70.066406 59.765625 -66.765625 C 61.859375 -63.460938 62.90625 -59.753906 62.90625 -55.640625 C 62.90625 -52.109375 62.113281 -48.78125 60.53125 -45.65625 C 58.957031 -42.539062 56.773438 -39.878906 53.984375 -37.671875 C 51.191406 -35.472656 48 -33.859375 44.40625 -32.828125 C 45.644531 -31.285156 46.796875 -29.429688 47.859375 -27.265625 C 48.929688 -25.097656 50.054688 -22.800781 51.234375 -20.375 C 53.578125 -15.601562 55.460938 -12.023438 56.890625 -9.640625 C 58.328125 -7.253906 59.894531 -6.0625 61.59375 -6.0625 C 63.132812 -6.0625 64.910156 -7.820312 66.921875 -11.34375 C 68.941406 -14.875 71.128906 -19.648438 73.484375 -25.671875 Z M 73.484375 -25.671875 "/></g></g></g></svg>